<?xml version="1.0" standalone="no"?>
<!DOCTYPE svg PUBLIC "-//W3C//DTD SVG 20010904//EN"
 "http://www.w3.org/TR/2001/REC-SVG-20010904/DTD/svg10.dtd">
<svg version="1.0" xmlns="http://www.w3.org/2000/svg"
 width="154.000000pt" height="154.000000pt" viewBox="0 0 154.000000 154.000000"
 preserveAspectRatio="xMidYMid meet">
<metadata>
Created by potrace 1.11, written by Peter Selinger 2001-2013
</metadata>
<g transform="translate(0.000000,154.000000) scale(0.100000,-0.100000)"
fill="#000000" stroke="none">
<path d="M595 948 c-116 -147 -109 -133 -83 -163 l23 -26 118 145 118 146 -48
0 -48 -1 -80 -101z"/>
<path d="M802 1033 c8 -10 61 -76 118 -147 l104 -128 24 27 c20 24 21 29 9 44
-7 9 -51 62 -96 119 l-82 102 -46 0 c-43 0 -45 -1 -31 -17z"/>
<path d="M676 890 c-53 -66 -96 -124 -96 -130 0 -12 396 -14 403 -2 3 4 -39
63 -94 131 -54 68 -99 120 -99 117 0 -4 42 -59 94 -124 l94 -117 -99 -3 c-55
-1 -143 -1 -196 0 l-95 3 87 110 c112 140 108 135 102 135 -3 0 -48 -54 -101
-120z"/>
<path d="M708 876 c-37 -46 -64 -87 -61 -90 8 -7 283 -8 283 -1 0 9 -134 174
-138 170 -2 -2 23 -38 57 -79 34 -41 61 -77 61 -80 0 -3 -56 -6 -125 -6 -69 0
-125 2 -125 5 0 3 27 39 60 81 54 68 65 84 58 84 -2 0 -33 -38 -70 -84z"/>
<path d="M777 924 c-3 -3 -3 -12 0 -20 3 -9 -2 -14 -13 -15 -17 0 -17 -1 1 -8
11 -5 24 -6 28 -4 4 3 15 -1 23 -8 12 -10 13 -9 8 5 -3 9 -13 16 -21 16 -9 0
-13 6 -10 15 6 15 -6 29 -16 19z"/>
<path d="M770 840 c0 -5 4 -10 9 -10 6 0 13 5 16 10 3 6 -1 10 -9 10 -9 0 -16
-4 -16 -10z"/>
<path d="M690 810 c0 -5 5 -10 11 -10 5 0 7 5 4 10 -3 6 -8 10 -11 10 -2 0 -4
-4 -4 -10z"/>
<path d="M183 798 c-28 -37 -26 -38 69 -38 87 1 94 2 111 25 l18 25 -94 0
c-64 0 -98 -4 -104 -12z"/>
<path d="M1200 780 c10 -18 21 -20 106 -20 92 0 94 1 84 20 -10 18 -21 20
-106 20 -92 0 -94 -1 -84 -20z"/>
<path d="M175 724 c-24 -25 -16 -59 15 -59 18 0 26 6 28 23 7 46 35 19 52 -51
7 -26 17 -50 22 -53 5 -3 0 -13 -12 -21 -11 -8 -35 -39 -51 -69 -17 -30 -41
-61 -52 -69 -20 -14 -18 -15 30 -15 l52 0 38 72 c48 91 63 97 63 26 0 -54 -12
-81 -40 -91 -8 -3 23 -5 70 -6 60 0 79 3 63 9 -21 8 -23 16 -23 75 0 37 4 65
10 65 6 0 27 -34 47 -75 l37 -75 56 1 c42 0 50 2 33 9 -12 5 -34 32 -48 61
-15 28 -37 62 -50 75 l-23 23 22 62 c24 69 36 80 51 47 13 -31 49 -30 53 0 7
47 -41 68 -84 37 -12 -8 -28 -39 -38 -74 -15 -53 -29 -71 -57 -71 -5 0 -9 29
-9 65 0 59 2 67 23 75 16 6 -3 9 -63 9 -47 -1 -78 -3 -70 -6 28 -10 40 -37 40
-90 0 -45 -3 -53 -19 -53 -25 0 -39 18 -56 78 -22 73 -72 103 -110 66z"/>
<path d="M944 725 c-12 -8 -27 -36 -34 -62 -16 -58 -36 -83 -67 -83 -21 0 -23
4 -23 53 0 53 12 80 40 90 8 3 -25 5 -75 5 -49 0 -82 -2 -72 -5 28 -7 37 -45
37 -153 0 -108 -9 -146 -37 -153 -10 -3 23 -5 72 -5 50 0 83 2 75 5 -28 10
-40 37 -40 90 0 74 17 69 67 -19 l40 -73 59 -2 c42 -2 53 0 38 7 -12 4 -36 34
-55 66 -18 32 -40 65 -50 75 -17 17 -16 20 4 80 24 69 41 84 51 44 9 -35 49
-32 54 4 7 44 -44 65 -84 36z"/>
<path d="M1091 720 c18 -11 119 -153 119 -168 0 -16 -101 -123 -124 -132 -14
-6 2 -9 49 -9 52 0 64 3 48 9 -13 5 -23 16 -23 24 0 15 56 86 69 86 3 0 19
-21 35 -46 28 -45 29 -47 11 -60 -16 -12 -8 -14 66 -14 59 1 79 3 67 10 -9 6
-42 48 -73 94 l-58 85 49 56 c27 32 58 61 69 65 13 6 -1 9 -45 9 -49 0 -59 -3
-42 -9 12 -5 22 -13 22 -17 0 -12 -52 -83 -61 -83 -11 0 -59 71 -59 87 0 6 8
14 18 16 9 3 -21 5 -68 6 -57 0 -80 -3 -69 -9z"/>
<path d="M132 368 c-7 -7 -12 -16 -12 -20 0 -4 288 -8 640 -8 629 0 639 0 650
20 11 20 8 20 -628 20 -483 0 -641 -3 -650 -12z"/>
</g>
</svg>
